<svg width="113" height="99" viewBox="0 0 113 99" fill="none" xmlns="http://www.w3.org/2000/svg">
<path d="M59.1905 77.5514C59.1905 79.2957 59.4057 80.9886 59.6748 82.6815H10.7619C7.90767 82.6815 5.17034 81.6005 3.15209 79.6764C1.13384 77.7522 0 75.1425 0 72.4214V10.8605C0 5.16611 4.78905 0.600342 10.7619 0.600342H43.0476L53.8095 10.8605H96.8571C99.7114 10.8605 102.449 11.9415 104.467 13.8656C106.485 15.7898 107.619 18.3995 107.619 21.1206V50.9264C102.884 48.31 97.3952 46.771 91.4762 46.771C73.6652 46.771 59.1905 60.5709 59.1905 77.5514ZM96.8571 72.4214V57.0311H86.0952V72.4214H69.9524V82.6815H86.0952V98.0717H96.8571V82.6815H113V72.4214H96.8571Z" fill="#FE4446"/>
</svg>
