<svg width="85" height="18" viewBox="0 0 85 18" fill="none" xmlns="http://www.w3.org/2000/svg">
<path d="M82.528 13.128L83 13.128L83 16.28L77.456 16.28L77.456 15.736L82.528 15.736L82.528 13.128ZM77.456 9.55687L77.928 9.55687L77.928 11.3329L83 11.3329L83 11.8769L77.928 11.8769L77.928 13.6529L77.456 13.6529L77.456 9.55687ZM78.136 5.35325C78.9947 5.09725 79.7733 4.84125 80.472 4.58525C81.1653 4.32392 81.8027 4.07058 82.384 3.82525C81.7547 3.63858 81.0133 3.45458 80.16 3.27325C79.3067 3.08658 78.4053 2.90792 77.456 2.73725L77.456 2.20125C78.0267 2.29725 78.5627 2.39592 79.064 2.49725C79.56 2.59325 80.0347 2.69458 80.488 2.80125C80.936 2.90792 81.368 3.01992 81.784 3.13725C82.1947 3.25458 82.6 3.38258 83 3.52125L83 4.10525C82.696 4.23325 82.392 4.36125 82.088 4.48925C81.784 4.61192 81.472 4.73458 81.152 4.85725C80.8267 4.97992 80.488 5.10258 80.136 5.22525C79.784 5.34792 79.4107 5.47325 79.016 5.60125C79.4107 5.72925 79.784 5.85725 80.136 5.98525C80.488 6.10792 80.8267 6.23058 81.152 6.35325C81.472 6.47592 81.784 6.60125 82.088 6.72925C82.392 6.85192 82.696 6.97725 83 7.10525L83 7.68125C82.6 7.82525 82.1947 7.95858 81.784 8.08125C81.368 8.19858 80.936 8.31058 80.488 8.41725C80.0347 8.51858 79.56 8.61725 79.064 8.71325C78.5627 8.80392 78.0267 8.89725 77.456 8.99325L77.456 8.43325C77.9253 8.35325 78.3867 8.27058 78.84 8.18525C79.288 8.09992 79.7227 8.01192 80.144 7.92125C80.5653 7.82525 80.9653 7.72925 81.344 7.63325C81.7173 7.53192 82.064 7.43325 82.384 7.33725C81.792 7.10792 81.152 6.86258 80.464 6.60125C79.7707 6.33992 78.9947 6.08125 78.136 5.82525L78.136 5.35325Z" fill="#FE4446"/>
<path fill-rule="evenodd" clip-rule="evenodd" d="M73.0256 2.64763L73.5728 1.152C73.0448 0.864001 72.3728 0.600001 71.5568 0.360001C70.7408 0.12 69.7728 0 68.6528 0C67.7088 0 66.8608 0.12 66.1088 0.360001C65.3568 0.584001 64.7168 0.912001 64.1888 1.344C63.6608 1.776 63.2528 2.304 62.9648 2.928C62.8263 3.22045 62.7211 3.53142 62.6492 3.86089L73.0256 2.64763ZM69.4982 7.00402L63.2864 7.53195C63.4925 7.8249 63.7293 8.09025 63.9968 8.328C64.4288 8.696 64.9168 9.008 65.4608 9.264C66.0048 9.504 66.5488 9.72 67.0928 9.912C68.3408 10.328 69.2208 10.72 69.7328 11.088C70.2448 11.44 70.5008 11.888 70.5008 12.432C70.5008 12.688 70.4608 12.92 70.3808 13.128C70.3008 13.336 70.1568 13.52 69.9488 13.68C69.7408 13.824 69.4608 13.944 69.1088 14.04C68.7728 14.12 68.3408 14.16 67.8128 14.16C66.7568 14.16 65.8608 14.056 65.1248 13.848C64.4048 13.624 63.7968 13.376 63.3008 13.104L62.2448 16.08C62.4688 16.208 62.7408 16.344 63.0608 16.488C63.3968 16.632 63.7888 16.768 64.2368 16.896C64.7008 17.024 65.2288 17.128 65.8208 17.208C66.4128 17.304 67.0768 17.352 67.8128 17.352C70.0048 17.352 71.6448 16.928 72.7328 16.08C73.8208 15.216 74.3648 14.008 74.3648 12.456C74.3648 11.656 74.2608 10.976 74.0528 10.416C73.8448 9.856 73.5248 9.368 73.0928 8.952C72.6768 8.536 72.1488 8.176 71.5088 7.872C70.9302 7.58267 70.2599 7.29335 69.4982 7.00402ZM59.6761 4.20852V0.384001H55.9321V4.64628L59.6761 4.20852ZM55.9321 8.15699L59.6761 7.83879V10.728C59.6761 11.704 59.5401 12.6 59.2681 13.416C58.9961 14.232 58.5801 14.936 58.0201 15.528C57.4601 16.104 56.7481 16.552 55.8841 16.872C55.0201 17.192 53.9961 17.352 52.8121 17.352C51.6441 17.352 50.6361 17.192 49.7881 16.872C48.9401 16.536 48.2361 16.08 47.6761 15.504C47.1321 14.912 46.7241 14.216 46.4521 13.416C46.1961 12.6 46.0681 11.704 46.0681 10.728V8.99532L49.8121 8.67712V10.416C49.8121 11.088 49.8841 11.664 50.0281 12.144C50.1881 12.608 50.3961 12.992 50.6521 13.296C50.9241 13.584 51.2441 13.792 51.6121 13.92C51.9961 14.048 52.4121 14.112 52.8601 14.112C53.7721 14.112 54.5081 13.832 55.0681 13.272C55.6441 12.712 55.9321 11.76 55.9321 10.416V8.15699ZM49.8121 5.36186V0.384001H46.0681V5.79962L49.8121 5.36186ZM42.4583 6.22169V0.384001H38.7143V6.65945L42.4583 6.22169ZM42.4583 9.30211L38.7143 9.62031V17.016H42.4583V9.30211ZM35.1495 7.07626C35.2542 6.64707 35.3065 6.17631 35.3065 5.664C35.3065 3.792 34.6425 2.416 33.3145 1.536C31.9865 0.64 30.0745 0.192 27.5785 0.192C26.8905 0.192 26.1065 0.224 25.2265 0.288001C24.3625 0.352001 23.5225 0.464001 22.7065 0.624001V8.53115L27.523 7.96799C27.5175 7.968 27.512 7.968 27.5065 7.968H26.4505V3.456C26.6425 3.44 26.8425 3.424 27.0505 3.408C27.2745 3.392 27.5225 3.384 27.7945 3.384C28.9945 3.384 29.8985 3.56 30.5065 3.912C31.1305 4.248 31.4425 4.824 31.4425 5.64C31.4425 6.488 31.1385 7.088 30.5305 7.44C30.3694 7.53324 30.1803 7.61413 29.9631 7.68268L35.1495 7.07626ZM22.7065 10.9808L32.3304 10.1629C32.283 10.1836 32.235 10.204 32.1865 10.224C32.5225 10.64 32.8745 11.12 33.2425 11.664C33.6105 12.192 33.9705 12.752 34.3225 13.344C34.6905 13.92 35.0425 14.528 35.3785 15.168C35.7145 15.792 36.0265 16.408 36.3145 17.016H32.1145C31.8105 16.472 31.4985 15.92 31.1785 15.36C30.8745 14.8 30.5545 14.256 30.2185 13.728C29.8985 13.2 29.5785 12.704 29.2585 12.24C28.9385 11.76 28.6185 11.328 28.2985 10.944H26.4505V17.016H22.7065V10.9808ZM18.8568 8.98128V0.384001H15.1128V9.41905L18.8568 8.98128ZM15.1128 11.6262L18.8568 11.308V17.016H15.1128V11.6262ZM11.6435 9.82468C11.4602 9.50517 11.2324 9.21428 10.96 8.952C10.544 8.536 10.016 8.176 9.376 7.872C8.736 7.552 7.984 7.232 7.12 6.912C6.704 6.768 6.32 6.632 5.968 6.504C5.632 6.36 5.328 6.208 5.056 6.048C4.8 5.872 4.6 5.68 4.456 5.472C4.312 5.264 4.24 5.008 4.24 4.704C4.24 4.192 4.432 3.816 4.816 3.576C5.216 3.32 5.864 3.192 6.76 3.192C7.56 3.192 8.24 3.288 8.8 3.48C9.376 3.656 9.896 3.864 10.36 4.104L11.44 1.152C10.912 0.864001 10.24 0.600001 9.424 0.360001C8.608 0.12 7.64 0 6.52 0C5.576 0 4.728 0.12 3.976 0.360001C3.224 0.584001 2.584 0.912001 2.056 1.344C1.528 1.776 1.12 2.304 0.832 2.928C0.544 3.536 0.4 4.224 0.4 4.992C0.4 5.76 0.536 6.416 0.807999 6.96C1.08 7.488 1.432 7.944 1.864 8.328C2.296 8.696 2.784 9.008 3.328 9.264C3.872 9.504 4.416 9.72 4.96 9.912C5.50196 10.0927 5.97453 10.2688 6.37769 10.4404L11.6435 9.82468ZM8.35176 12.2008L12.2121 11.8727C12.2254 12.0595 12.232 12.2539 12.232 12.456C12.232 14.008 11.688 15.216 10.6 16.08C9.512 16.928 7.872 17.352 5.68 17.352C4.944 17.352 4.28 17.304 3.688 17.208C3.096 17.128 2.568 17.024 2.104 16.896C1.656 16.768 1.264 16.632 0.928 16.488C0.608 16.344 0.336 16.208 0.112 16.08L1.168 13.104C1.664 13.376 2.272 13.624 2.992 13.848C3.728 14.056 4.624 14.16 5.68 14.16C6.208 14.16 6.64 14.12 6.976 14.04C7.328 13.944 7.608 13.824 7.816 13.68C8.024 13.52 8.168 13.336 8.248 13.128C8.328 12.92 8.368 12.688 8.368 12.432C8.368 12.3529 8.36259 12.2758 8.35176 12.2008Z" fill="#FE4446"/>
</svg>
