<svg width="120" height="115" viewBox="0 0 120 115" fill="none" xmlns="http://www.w3.org/2000/svg">
<path d="M60 114.672C26.862 114.672 0 89.0028 0 57.3361C0 25.6694 26.862 0 60 0C93.138 0 120 25.6694 120 57.3361C120 89.0028 93.138 114.672 60 114.672ZM39 68.8033V80.2705H54V91.7378H66V80.2705H72C75.9782 80.2705 79.7936 78.7604 82.6066 76.0722C85.4196 73.3841 87 69.7381 87 65.9365C87 62.1349 85.4196 58.489 82.6066 55.8008C79.7936 53.1127 75.9782 51.6025 72 51.6025H48C47.2043 51.6025 46.4413 51.3005 45.8787 50.7628C45.3161 50.2252 45 49.496 45 48.7357C45 47.9754 45.3161 47.2462 45.8787 46.7085C46.4413 46.1709 47.2043 45.8689 48 45.8689H81V34.4017H66V22.9344H54V34.4017H48C44.0218 34.4017 40.2064 35.9118 37.3934 38.6C34.5804 41.2882 33 44.9341 33 48.7357C33 52.5373 34.5804 56.1832 37.3934 58.8714C40.2064 61.5595 44.0218 63.0697 48 63.0697H72C72.7956 63.0697 73.5587 63.3718 74.1213 63.9094C74.6839 64.447 75 65.1762 75 65.9365C75 66.6968 74.6839 67.426 74.1213 67.9637C73.5587 68.5013 72.7956 68.8033 72 68.8033H39Z" fill="#FE4446"/>
</svg>
