<svg width="149" height="35" viewBox="0 0 149 35" fill="none" xmlns="http://www.w3.org/2000/svg">
<path fill-rule="evenodd" clip-rule="evenodd" d="M13.728 28.08C13.056 28.24 12.192 28.32 11.136 28.32C9.024 28.32 7.232 28.112 5.76 27.696C5.12252 27.4977 4.52894 27.2899 3.97926 27.0728L1.72953 27.2859L0 32.16C0.448 32.416 0.992 32.688 1.632 32.976C2.304 33.264 3.088 33.536 3.984 33.792C4.912 34.048 5.968 34.256 7.152 34.416C8.336 34.608 9.664 34.704 11.136 34.704C15.52 34.704 18.8 33.856 20.976 32.16C23.0951 30.4772 24.1824 28.1419 24.2378 25.154L16.387 25.8976C16.3548 26.0208 16.3165 26.1403 16.272 26.256C16.112 26.672 15.824 27.04 15.408 27.36C14.992 27.648 14.432 27.888 13.728 28.08ZM15.9091 23.0452C15.6695 22.7287 15.3585 22.439 14.976 22.176C13.952 21.44 12.192 20.656 9.696 19.824C8.608 19.44 7.52 19.008 6.432 18.528C5.344 18.016 4.368 17.392 3.504 16.656C2.64 15.888 1.936 14.976 1.392 13.92C0.848 12.832 0.576 11.52 0.576 9.984C0.576 8.448 0.864 7.072 1.44 5.856C2.016 4.608 2.832 3.552 3.888 2.688C4.944 1.824 6.224 1.168 7.728 0.720002C9.232 0.240001 10.928 0 12.816 0C15.056 0 16.992 0.240001 18.624 0.720002C20.256 1.2 21.6 1.728 22.656 2.304L20.496 8.208C19.568 7.728 18.528 7.312 17.376 6.96C16.256 6.576 14.896 6.384 13.296 6.384C11.504 6.384 10.208 6.64 9.408 7.152C8.64 7.632 8.256 8.384 8.256 9.408C8.256 10.016 8.4 10.528 8.688 10.944C8.976 11.36 9.376 11.744 9.888 12.096C10.432 12.416 11.04 12.72 11.712 13.008C12.416 13.264 13.184 13.536 14.016 13.824C15.744 14.464 17.248 15.104 18.528 15.744C19.808 16.352 20.864 17.072 21.696 17.904C22.56 18.736 23.2 19.712 23.616 20.832C23.7539 21.2034 23.869 21.6011 23.9612 22.0253L15.9091 23.0452ZM30.0015 24.6081V34.032H37.4895V23.8989L30.0015 24.6081ZM37.4895 20.3117L30.0015 21.2602V0.768002H37.4895V20.3117ZM45.189 23.1697V34.032H52.677V22.4605L45.189 23.1697ZM56.543 22.0943C57.1264 22.8098 57.7097 23.605 58.293 24.48C58.933 25.408 59.573 26.4 60.213 27.456C60.885 28.512 61.525 29.6 62.133 30.72C62.773 31.84 63.397 32.944 64.005 34.032H72.405C71.829 32.816 71.205 31.584 70.533 30.336C69.861 29.056 69.157 27.84 68.421 26.688C67.717 25.504 66.997 24.384 66.261 23.328C65.767 22.5977 65.2874 21.9251 64.8222 21.3101L56.543 22.0943ZM69.2435 16.2895L45.189 19.3364V1.248C46.821 0.928001 48.501 0.704001 50.229 0.576001C51.989 0.448001 53.557 0.384001 54.933 0.384001C59.925 0.384001 63.749 1.28 66.405 3.072C69.061 4.832 70.389 7.584 70.389 11.328C70.389 13.2851 70.0072 14.9389 69.2435 16.2895ZM77.2046 20.1374V34.032H84.6926V19.4281L77.2046 20.1374ZM84.6926 14.3326L77.2046 15.2811V0.768002H84.6926V14.3326ZM91.9121 18.7444V21.456C91.9121 23.408 92.1681 25.2 92.6801 26.832C93.2241 28.432 94.0401 29.824 95.1281 31.008C96.2481 32.16 97.6561 33.072 99.3521 33.744C101.048 34.384 103.064 34.704 105.4 34.704C107.768 34.704 109.816 34.384 111.544 33.744C113.272 33.104 114.696 32.208 115.816 31.056C116.936 29.872 117.768 28.464 118.312 26.832C118.856 25.2 119.128 23.408 119.128 21.456V16.1666L111.64 16.8758V20.832C111.64 23.52 111.064 25.424 109.912 26.544C108.792 27.664 107.32 28.224 105.496 28.224C104.6 28.224 103.768 28.096 103 27.84C102.264 27.584 101.624 27.168 101.08 26.592C100.568 25.984 100.152 25.216 99.8321 24.288C99.5441 23.328 99.4001 22.176 99.4001 20.832V18.0351L91.9121 18.7444ZM99.4001 12.4697L91.9121 13.4182V0.768002H99.4001V12.4697ZM111.64 10.9193L119.128 9.97081V0.768002H111.64V10.9193ZM126.64 15.4552C126.98 15.8884 127.356 16.2887 127.77 16.656C128.634 17.392 129.61 18.016 130.698 18.528C131.786 19.008 132.874 19.44 133.962 19.824C136.458 20.656 138.218 21.44 139.242 22.176C140.266 22.88 140.778 23.776 140.778 24.864C140.778 25.376 140.698 25.84 140.538 26.256C140.378 26.672 140.09 27.04 139.674 27.36C139.258 27.648 138.698 27.888 137.994 28.08C137.322 28.24 136.458 28.32 135.402 28.32C133.29 28.32 131.498 28.112 130.026 27.696C128.586 27.248 127.37 26.752 126.378 26.208L124.266 32.16C124.714 32.416 125.258 32.688 125.898 32.976C126.57 33.264 127.354 33.536 128.25 33.792C129.178 34.048 130.234 34.256 131.418 34.416C132.602 34.608 133.93 34.704 135.402 34.704C139.786 34.704 143.066 33.856 145.242 32.16C147.418 30.432 148.506 28.016 148.506 24.912C148.506 23.312 148.298 21.952 147.882 20.832C147.466 19.712 146.826 18.736 145.962 17.904C145.13 17.072 144.074 16.352 142.794 15.744C141.796 15.2451 140.662 14.7462 139.392 14.2474L126.64 15.4552ZM132.73 8.24784L124.865 9.24418C124.943 8.00279 125.224 6.87339 125.706 5.856C126.282 4.608 127.098 3.552 128.154 2.688C129.21 1.824 130.49 1.168 131.994 0.720002C133.498 0.240001 135.194 0 137.082 0C139.322 0 141.258 0.240001 142.89 0.720002C144.522 1.2 145.866 1.728 146.922 2.304L145.331 6.65179L142.002 7.07344C141.883 7.03491 141.763 6.9971 141.642 6.96C140.522 6.576 139.162 6.384 137.562 6.384C135.77 6.384 134.474 6.64 133.674 7.152C133.233 7.42761 132.918 7.79289 132.73 8.24784ZM53.877 6.816C54.325 6.784 54.821 6.768 55.365 6.768C57.765 6.768 59.573 7.12 60.789 7.824C62.037 8.496 62.661 9.648 62.661 11.28C62.661 12.976 62.053 14.176 60.837 14.88C59.621 15.584 57.605 15.936 54.789 15.936H52.677V6.912C53.061 6.88 53.461 6.848 53.877 6.816Z" fill="#FE4446"/>
</svg>
