<svg width="118" height="91" viewBox="0 0 118 91" fill="none" xmlns="http://www.w3.org/2000/svg">
<path d="M49.9131 65.2497C52.3743 67.6138 55.4754 68.724 59.2164 68.5803C62.9574 68.4403 65.6647 67.141 67.3384 64.6823L100.417 17.0217L50.7991 48.7954C48.2395 50.4976 46.8376 53.0735 46.5934 56.5233C46.3453 59.9768 47.4519 62.8856 49.9131 65.2497ZM18.3113 90.7822C16.1455 90.7822 14.1529 90.332 12.3336 89.4318C10.5103 88.5353 9.05721 87.1887 7.97428 85.392C5.41463 80.9474 3.44568 76.3384 2.06741 71.5647C0.689135 66.7873 0 61.8454 0 56.7389C0 48.89 1.55154 41.5139 4.65462 34.6107C7.75376 27.7075 11.9614 21.7026 17.2776 16.5961C22.5938 11.4896 28.8452 7.44603 36.0319 4.46535C43.2186 1.48845 50.8976 0 59.0687 0C67.1415 0 74.722 1.46575 81.8102 4.39726C88.8985 7.32877 95.1007 11.3251 100.417 16.3862C105.733 21.4435 109.966 27.3519 113.117 34.1114C116.267 40.8747 117.891 48.1335 117.99 55.8878C118.088 61.0888 117.474 66.1726 116.147 71.1392C114.816 76.1019 112.772 80.8529 110.016 85.392C108.933 87.1887 107.481 88.5353 105.662 89.4318C103.839 90.332 101.844 90.7822 99.6785 90.7822H18.3113Z" fill="#FE4446"/>
</svg>
